<?xml version="1.0" encoding="UTF-8" standalone="no"?>
<!-- Created with Inkscape (http://www.inkscape.org/) -->

<svg
   width="2400"
   height="400"
   viewBox="0 0 634.99998 105.83334"
   version="1.1"
   id="svg5"
   inkscape:version="1.1 (c4e8f9e, 2021-05-24)"
   sodipodi:docname="header_logo_2400x400.svg"
   xmlns:inkscape="http://www.inkscape.org/namespaces/inkscape"
   xmlns:sodipodi="http://sodipodi.sourceforge.net/DTD/sodipodi-0.dtd"
   xmlns="http://www.w3.org/2000/svg"
   xmlns:svg="http://www.w3.org/2000/svg">
  <sodipodi:namedview
     id="namedview7"
     pagecolor="#ffffff"
     bordercolor="#666666"
     borderopacity="1.0"
     inkscape:pageshadow="2"
     inkscape:pageopacity="0.0"
     inkscape:pagecheckerboard="0"
     inkscape:document-units="mm"
     showgrid="false"
     inkscape:snap-global="false"
     units="px"
     inkscape:zoom="0.16294356"
     inkscape:cx="1534.2735"
     inkscape:cy="892.9472"
     inkscape:window-width="1312"
     inkscape:window-height="847"
     inkscape:window-x="8"
     inkscape:window-y="25"
     inkscape:window-maximized="0"
     inkscape:current-layer="layer1"
     width="3000px" />
  <defs
     id="defs2" />
  <g
     inkscape:label="Layer 1"
     inkscape:groupmode="layer"
     id="layer1">
    <g
       id="g8831"
       transform="translate(-125.03051,-290.19869)">
      <path
         style="fill:none;stroke:#000000;stroke-width:1.32292;stroke-linecap:butt;stroke-linejoin:miter;stroke-miterlimit:4;stroke-dasharray:none;stroke-opacity:1"
         d="m 199.13052,299.98483 c 19.16846,3.10813 42.44944,3.18623 58.0042,35.80963"
         id="path1633"
         sodipodi:nodetypes="cc" />
      <path
         style="fill:none;stroke:#000000;stroke-width:1.32292;stroke-linecap:butt;stroke-linejoin:miter;stroke-miterlimit:4;stroke-dasharray:none;stroke-opacity:1"
         d="m 214.79847,337.17955 c 25.44981,-6.56045 15.08985,1.82982 43.00628,-1.03441"
         id="path1633-6"
         sodipodi:nodetypes="cc" />
      <path
         style="fill:none;stroke:#000000;stroke-width:1.32292;stroke-linecap:butt;stroke-linejoin:miter;stroke-miterlimit:4;stroke-dasharray:none;stroke-opacity:1"
         d="m 198.66193,368.9713 c 13.89086,-3.24819 40.14931,-5.54162 54.72326,-32.47513"
         id="path1633-6-5"
         sodipodi:nodetypes="cc" />
      <ellipse
         style="fill:#000000;stroke:#f00000;stroke-width:0.261224;stroke-miterlimit:4;stroke-dasharray:none;stroke-opacity:0.0588235"
         id="path4048-5"
         cx="185.08138"
         cy="322.79175"
         rx="5.8217506"
         ry="5.7230768" />
      <path
         style="fill:#000000;stroke:#000000;stroke-width:0.809715;stroke-miterlimit:4;stroke-dasharray:none;stroke-opacity:0"
         d="m 163.80799,385.83798 c -17.68027,-0.61865 -32.21044,-1.18933 -32.28928,-1.26817 -0.27397,-0.27395 10.70163,-55.6373 11.18078,-56.39832 1.28185,-2.03589 20.64994,-24.80051 21.19944,-24.91712 0.73638,-0.15627 34.77003,-3.90366 35.44029,-3.90244 0.0402,0.0173 0.33249,0.40357 0.68367,1.23266 0.31918,0.75354 4.04212,9.03663 7.87183,18.23788 3.82971,9.20122 7.16227,17.17035 7.4057,17.70916 0.24342,0.53881 0.33827,1.07012 0.21079,1.18068 -0.12749,0.11058 -3.72121,1.19055 -7.98604,2.39991 -4.26483,1.20939 -7.80371,2.24836 -7.86417,2.30882 -0.11445,0.11445 -0.66059,32.9205 -0.67195,40.36299 l -0.006,4.25449 -1.51431,-0.0379 c -0.83287,-0.0208 -15.97998,-0.54402 -33.66025,-1.16267 z m 25.14239,-53.0309 c 4.28059,-1.60372 6.90488,-5.43882 6.90488,-10.09067 0,-3.63138 -1.49616,-6.55599 -4.48644,-8.76981 -1.9633,-1.45351 -3.97368,-1.98212 -7.04969,-1.85362 -3.08781,0.12902 -5.17192,1.00834 -7.19102,3.03403 -5.14626,5.16309 -3.78942,13.9479 2.64345,17.11481 3.02754,1.49044 6.18957,1.68518 9.17882,0.56526 z"
         id="path5630"
         sodipodi:nodetypes="sssscssssssccssssssssss" />
    </g>
    <text
       xml:space="preserve"
       style="font-style:normal;font-variant:normal;font-weight:normal;font-stretch:normal;font-size:77.6111px;line-height:1.25;font-family:Pacifico;-inkscape-font-specification:'Pacifico, Normal';font-variant-ligatures:normal;font-variant-caps:normal;font-variant-numeric:normal;font-variant-east-asian:normal;fill:#000000;fill-opacity:1;stroke:none;stroke-width:0.264583"
       x="157.85487"
       y="86.989395"
       id="text1266"><tspan
         sodipodi:role="line"
         id="tspan1264"
         style="font-style:normal;font-variant:normal;font-weight:normal;font-stretch:normal;font-size:77.6111px;font-family:Pacifico;-inkscape-font-specification:'Pacifico, Normal';font-variant-ligatures:normal;font-variant-caps:normal;font-variant-numeric:normal;font-variant-east-asian:normal;stroke-width:0.264583"
         x="157.85487"
         y="86.989395">Darwin's Tees</tspan></text>
  </g>
</svg>
